<svg width="293" height="338" viewBox="0 0 293 338" fill="none" xmlns="http://www.w3.org/2000/svg">
<mask id="path-1-inside-1_15_85" fill="white">
<path d="M0 84.8L146.5 0L293 84.8V253.2L146.5 338L4.37313 255.731L0 84.8Z"/>
</mask>
<path d="M0 84.8L146.5 0L293 84.8V253.2L146.5 338L4.37313 255.731L0 84.8Z" fill="#B4CDE5"/>
<path d="M146.5 169.6L136.481 186.909L146.5 192.709L156.519 186.909L146.5 169.6ZM0 84.8L-10.0193 102.109L136.481 186.909L146.5 169.6L156.519 152.291L10.0193 67.4907L0 84.8ZM146.5 169.6L156.519 186.909L303.019 102.109L293 84.8L282.981 67.4907L136.481 152.291L146.5 169.6ZM146.5 0L166.539 -34.6187L146.5 -46.2178L126.461 -34.6187L146.5 0ZM0 84.8L-20.0387 50.1813L-40.5944 62.0798L-39.9869 85.823L0 84.8ZM293 84.8H333V61.7358L313.039 50.1813L293 84.8ZM293 253.2L313.039 287.819L333 276.264V253.2H293ZM146.5 338L126.461 372.619L146.5 384.218L166.539 372.619L146.5 338ZM4.37313 255.731L-35.6138 256.754L-35.0412 279.135L-15.6655 290.35L4.37313 255.731ZM146.5 0L126.461 -34.6187L-20.0387 50.1813L0 84.8L20.0387 119.419L166.539 34.6187L146.5 0ZM293 84.8H253V253.2H293H333V84.8H293ZM293 253.2L272.961 218.581L126.461 303.381L146.5 338L166.539 372.619L313.039 287.819L293 253.2ZM146.5 338L166.539 303.381L24.4118 221.113L4.37313 255.731L-15.6655 290.35L126.461 372.619L146.5 338ZM4.37313 255.731L44.36 254.708L39.9869 83.777L0 84.8L-39.9869 85.823L-35.6138 256.754L4.37313 255.731ZM146.5 0L126.461 34.6187L272.961 119.419L293 84.8L313.039 50.1813L166.539 -34.6187L146.5 0Z" fill="white" mask="url(#path-1-inside-1_15_85)"/>
<path d="M60 96.5L146.5 46.5L233 96.5L146.5 146.5L60 96.5Z" fill="#DEDEDE"/>
</svg>
